PathFileType	4	(X/Y/Z)	C:\Users\WrightLab\Desktop\Jo\P1.2Trial10.trc
DataRate	CameraRate	NumFrames	NumMarkers	Units	OrigDataRate	OrigDataStartFrame	OrigNumFrames
100.00	100.00	       19	19	mm	100.00	203	       539
Frame#	Time	Headset_Front			Headset_Back			Headset_Left			Headset_Right			Left_Shoulder			Right_Shoulder			Sternum			C7			Left Elbow			Right Elbow			Left Wrist			Right Wrist			Left ASIS			Right ASIS			S2			Left Knee			Right Knee			Left Ankle			Right Ankle			
		X1	Y1	Z1	X2	Y2	Z2	X3	Y3	Z3	X4	Y4	Z4	X5	Y5	Z5	X6	Y6	Z6	X7	Y7	Z7	X8	Y8	Z8	X9	Y9	Z9	X10	Y10	Z10	X11	Y11	Z11	X12	Y12	Z12	X13	Y13	Z13	X14	Y14	Z14	X15	Y15	Z15	X16	Y16	Z16	X17	Y17	Z17	X18	Y18	Z18	X19	Y19	Z19	

203	2.020	-554.81915	1395.51343	109.62072	-681.10742	1496.18286	-149.27957	-529.09619	1442.42798	-93.41749	-696.34631	1428.10291	63.16399	-472.48865	1231.18872	-210.40894	-827.00500	1232.28528	27.76743	-581.77106	1169.17590	10.24583	-711.27673	1292.72241	-180.80992	-469.27029	949.53931	-302.69110	-926.78503	988.52258	17.92244	-366.77167	735.80743	-265.93597	-982.88800	745.70691	107.24675	-487.20901	854.12701	-57.82081	-726.47827	846.16931	76.16679	-727.22638	892.55865	-238.57970	-445.95700	457.41730	33.74580	-766.48682	440.35263	106.77786	-573.15613	220.60062	-238.04652	-802.57928	91.92805	92.10142	
204	2.030	-551.21149	1395.82532	118.51314	-678.06079	1498.01941	-139.34445	-525.89020	1443.94177	-85.62605	-692.16772	1428.42419	73.20979	-471.38998	1232.32422	-204.83823	-822.68488	1233.75024	38.29020	-577.95575	1170.48181	17.67571	-710.23657	1295.31836	-172.22707	-469.38354	951.72699	-299.71237	-921.65698	990.02087	32.50375	-367.22552	737.17596	-261.95602	-974.96149	747.19830	125.47615	-485.81848	855.43890	-53.43566	-721.82062	847.46930	82.03406	-726.65363	895.28333	-230.04097	-438.30563	462.51230	44.73308	-764.92200	437.94724	111.29060	-569.56866	219.85124	-216.87372	-802.05444	91.85484	93.36733	
205	2.040	-547.02094	1396.52515	127.42407	-674.94781	1500.11218	-130.19031	-522.65167	1444.97351	-76.26156	-689.28082	1429.17285	81.93133	-469.95911	1233.45056	-198.54398	-818.23627	1235.74915	49.17892	-574.23413	1171.48633	25.20850	-708.61938	1296.91064	-163.37900	-470.77527	952.72302	-293.29260	-917.15900	991.59222	46.85277	-368.58832	738.08234	-257.77512	-966.74365	749.43848	143.44389	-484.17169	856.21863	-48.33350	-717.84558	849.33459	89.55473	-725.55554	897.03217	-221.76622	-434.76556	465.73932	52.57771	-762.69934	435.86765	115.30685	-566.01605	217.80557	-195.15938	-802.35736	91.11507	93.54676	
206	2.050	-542.83374	1397.01160	135.76944	-671.16235	1501.09314	-120.90913	-519.07764	1445.84961	-67.68413	-684.64746	1429.84351	91.56362	-468.82468	1235.22437	-192.58186	-813.82184	1237.14087	58.64731	-569.85876	1173.53711	32.30749	-706.23718	1298.46936	-154.39497	-471.66785	954.59009	-287.50150	-912.33728	993.12952	61.74113	-368.49707	739.14264	-253.42250	-957.72998	751.94391	161.47556	-482.29034	858.17181	-43.32071	-712.94733	850.63318	97.62832	-724.71515	899.37927	-214.08342	-426.25082	473.58618	62.58545	-761.53882	432.76801	115.48203	-561.60358	213.34200	-171.99879	-802.60211	90.91384	93.36583	
207	2.060	-538.36774	1397.16113	143.49052	-668.07965	1502.42896	-112.12296	-515.34320	1446.86121	-59.28064	-681.00970	1430.78674	99.24347	-467.49738	1236.71021	-186.78532	-810.01813	1238.75049	68.53078	-565.95898	1173.96667	38.57395	-704.27783	1299.63354	-144.77307	-472.69724	956.36658	-281.05548	-906.98291	994.38812	76.00390	-368.94150	740.09894	-249.70070	-948.70709	753.58795	179.41426	-480.17679	859.92883	-37.67754	-709.02368	852.53119	105.03961	-723.32397	900.36353	-204.98549	-418.65271	480.99896	74.14197	-759.62164	432.27444	122.01768	-557.09082	207.86375	-149.07703	-802.90497	90.72652	93.12250	
208	2.070	-534.22198	1397.70032	151.68755	-664.55353	1503.58228	-103.43551	-511.68958	1447.36108	-52.14081	-676.88214	1431.13306	107.87396	-465.98868	1237.64319	-180.23099	-805.71149	1240.84375	79.15182	-562.32770	1175.20105	46.04357	-702.05914	1300.85388	-136.00183	-473.23499	958.17163	-275.76581	-902.17798	995.98767	90.00370	-368.98019	741.10278	-245.58160	-939.34229	756.25409	197.10782	-475.34201	862.44043	-31.73438	-703.88812	853.63214	112.21937	-721.91620	901.89331	-197.19377	-411.07199	488.72256	83.13753	-756.76923	431.15817	125.26544	-551.70837	201.97542	-125.70004	-803.03851	90.66273	93.00928	
209	2.080	-529.84802	1397.29614	159.28506	-660.67743	1503.93811	-94.14093	-507.94403	1447.53821	-43.66076	-672.42438	1431.96851	117.52509	-464.15671	1238.50293	-173.05956	-800.73370	1241.42188	88.56548	-558.31238	1175.58887	53.62208	-699.44855	1302.20313	-127.11485	-474.35593	958.81982	-268.88852	-897.20569	997.42432	103.06026	-368.89008	741.92596	-240.67549	-931.57373	758.32910	215.82201	-472.59982	864.28668	-25.98563	-700.24713	854.55487	120.77661	-720.16199	902.24243	-188.18475	-404.39606	495.37067	91.36971	-755.05920	427.89642	125.34167	-544.91046	196.06712	-102.38229	-802.57269	90.85465	93.09389	
210	2.090	-525.38184	1397.45630	168.26456	-656.96600	1504.45642	-85.57700	-504.13705	1447.39587	-35.73109	-667.88727	1432.40942	124.84892	-461.94778	1238.95239	-166.52487	-795.95007	1243.11084	99.91576	-554.35956	1177.21350	60.70383	-697.10199	1302.23535	-118.18616	-474.63483	959.87500	-263.34818	-892.54962	998.95105	116.70425	-368.61673	742.33606	-236.52933	-919.31226	759.94586	231.79620	-470.07071	864.79102	-19.46536	-695.93860	854.69568	126.77703	-718.76892	903.89301	-181.26955	-398.16019	498.37891	97.72018	-752.53101	427.83307	129.58519	-535.63751	189.89040	-78.69797	-801.92841	89.76801	93.12991	
211	2.100	-520.50500	1397.05920	175.81813	-653.22565	1505.14941	-77.19383	-500.54730	1447.78638	-27.96533	-663.61786	1432.35352	133.99126	-459.96167	1239.45972	-160.12204	-791.72589	1243.44885	107.96340	-549.65167	1176.87415	67.68365	-694.36389	1303.09827	-109.73629	-474.61383	960.56354	-257.09814	-887.32056	1000.27283	129.06192	-368.69232	742.60486	-232.11546	-909.41547	761.73517	250.86078	-466.62805	864.90576	-13.26547	-691.87189	855.38477	135.24406	-716.89532	903.97156	-172.25603	-391.61673	503.70462	105.67115	-750.29205	427.17099	132.04684	-525.14935	183.45238	-55.11603	-800.79138	90.18800	93.69312	
212	2.110	-515.73206	1396.40527	183.55746	-649.14349	1504.82703	-68.11469	-496.45212	1447.61975	-20.64041	-658.96490	1431.88318	142.42258	-457.53061	1239.07776	-153.13957	-786.52844	1243.87939	118.04498	-546.35437	1177.02625	76.15851	-691.62524	1303.37329	-101.33307	-474.69431	961.93756	-252.14882	-881.75549	1000.70776	142.49928	-368.85687	742.86292	-227.43924	-898.85840	763.32990	266.95566	-462.90060	865.08875	-6.87080	-687.74719	855.98480	142.59985	-714.60779	904.16907	-163.94118	-386.15085	507.25528	112.27227	-747.00928	426.97498	136.43547	-513.53613	177.91655	-33.23365	-799.98480	89.62706	94.16525	
213	2.120	-510.95068	1396.54407	191.45256	-645.43115	1505.06616	-60.33410	-492.17740	1447.10840	-11.35238	-654.45129	1431.87134	150.75429	-454.51028	1238.98779	-147.34097	-781.21436	1244.13940	126.15975	-541.28851	1176.30151	83.18546	-688.12805	1303.37927	-92.48235	-473.37372	961.24805	-244.49829	-876.93787	1001.32135	154.91969	-367.80286	743.38727	-224.10442	-887.51221	764.48260	284.34195	-458.94440	865.09460	-0.77583	-682.41083	855.99701	152.23967	-712.42932	904.45264	-155.91028	-379.09894	510.81586	118.76074	-743.92340	425.97299	141.47060	-500.10013	172.21654	-11.31648	-799.38385	89.37325	94.64442	
214	2.130	-505.80933	1395.78088	198.66635	-641.15002	1504.95544	-51.43920	-488.15417	1446.48413	-4.88533	-648.80725	1431.62927	159.07579	-451.33749	1238.36121	-139.90279	-775.76971	1244.78333	136.88554	-537.40460	1175.84229	89.86410	-684.66132	1302.99878	-83.97144	-471.57736	961.13177	-238.14020	-871.47357	1001.70953	166.93431	-366.72794	742.75873	-219.62737	-876.69012	765.95728	300.06122	-455.43353	865.01697	4.70038	-678.32532	855.88684	160.40041	-710.30957	905.03943	-148.82935	-373.74112	513.89435	125.33635	-740.06128	425.71805	146.53432	-484.98657	167.46788	9.40381	-799.17493	88.64846	93.83578	
215	2.140	-501.03909	1395.20251	206.52997	-636.81903	1504.45374	-43.39612	-483.38739	1446.26282	3.01205	-643.83813	1431.03113	167.02792	-448.28036	1238.23645	-132.97899	-770.81940	1244.24023	145.41219	-532.45422	1175.49231	97.35342	-680.91071	1302.87488	-74.60273	-468.98697	960.89691	-232.52393	-866.64410	1002.52344	179.03867	-365.12836	742.14697	-214.75093	-864.92896	766.49902	315.55130	-451.34583	865.06989	10.88796	-673.87347	855.16718	169.11954	-707.63104	905.02692	-140.22043	-367.98605	516.82336	131.74655	-736.17072	425.61081	151.91702	-468.01434	162.39700	29.04126	-798.69415	88.73499	94.00534	
216	2.150	-495.96967	1394.75708	214.13654	-632.64172	1503.37317	-35.88610	-479.09052	1445.56262	9.52796	-638.91321	1430.34045	175.22482	-444.56183	1236.79529	-125.50752	-764.47583	1244.14490	154.90358	-527.61389	1174.41296	104.58106	-676.64911	1301.60999	-65.99262	-466.89478	960.14069	-225.38312	-861.44897	1002.22974	190.85799	-363.00821	742.13110	-211.25238	-853.42767	767.27081	331.01318	-446.80383	863.58759	17.56954	-670.43665	855.18024	176.55473	-704.81982	904.65051	-131.77856	-362.32901	519.04498	138.52122	-731.96307	422.92731	155.83676	-451.20749	157.74371	48.41887	-797.33051	89.26015	94.44605	
217	2.160	-490.08258	1393.55737	222.10695	-627.77557	1502.99536	-27.14986	-474.21246	1444.67810	18.10026	-632.76343	1429.32837	185.45921	-441.32339	1236.03625	-118.37494	-759.35114	1243.41394	164.57106	-522.49750	1173.18616	113.87453	-673.00403	1301.64819	-58.13626	-464.21118	959.35883	-219.07085	-855.97418	1002.60205	202.46106	-361.30823	741.21716	-206.13347	-841.63904	767.43640	346.25177	-443.68857	861.74036	23.12193	-665.90955	853.76904	183.73125	-701.75470	904.10645	-123.96449	-356.90088	520.84900	144.70871	-725.90100	423.15753	162.69223	-432.15784	154.25661	67.82564	-796.72864	89.03902	94.84869	
218	2.170	-484.60022	1392.90015	229.26003	-623.62061	1502.11511	-19.78825	-469.70703	1443.47144	25.19060	-627.23157	1428.80969	193.54790	-436.75854	1234.56360	-110.74647	-753.50464	1242.51196	173.73372	-517.36530	1171.58191	121.19050	-669.28937	1301.43237	-50.71449	-460.72836	958.40564	-212.03114	-849.35455	1001.75787	215.61356	-359.11728	740.51056	-201.38060	-830.28595	768.43115	360.79663	-439.14404	860.63171	30.04046	-661.57678	852.79425	192.49669	-697.92474	902.95685	-116.21341	-350.43863	521.44849	150.97218	-721.75793	421.85791	167.35712	-411.34482	150.22803	88.13352	-795.35681	88.77840	95.52680	
219	2.180	-478.82352	1392.01624	236.61211	-618.71930	1500.76147	-11.19504	-464.70511	1442.89758	32.08360	-621.49377	1427.66443	201.60907	-433.19116	1233.49463	-103.82579	-747.91730	1241.84900	181.53384	-511.84854	1170.39038	128.47873	-664.72076	1300.51733	-41.43055	-457.74493	957.99908	-205.48460	-844.09479	1001.26855	227.26010	-357.00122	739.23993	-196.36806	-818.35394	769.30780	375.00894	-435.06894	859.26093	37.10997	-657.33411	851.99384	201.13272	-694.80011	903.10608	-108.82797	-345.93304	521.45795	157.05780	-718.85236	420.57123	172.24196	-390.66882	147.35405	107.54229	-794.33362	88.84031	96.73086	
220	2.190	-472.90671	1391.10486	244.10474	-614.20728	1500.20105	-3.44940	-459.51001	1441.32825	40.29736	-615.57849	1426.90027	209.56509	-428.49869	1231.78943	-95.62297	-741.38422	1240.38074	192.06146	-506.73486	1169.12061	136.58871	-658.96051	1298.67749	-32.45903	-454.14243	956.62457	-198.87764	-838.27423	1001.05695	238.49748	-353.71304	738.10760	-190.49651	-806.49261	769.53223	388.77341	-432.11261	857.58301	44.75779	-652.82306	850.10577	208.90384	-690.40820	901.89337	-100.79673	-341.15015	520.89331	162.80215	-713.86841	419.16422	176.36366	-369.21548	145.55457	126.36606	-793.45966	88.88775	98.67928	
221	2.200	-466.34311	1390.35803	252.21973	-608.87842	1498.91882	4.79539	-454.19946	1440.30237	46.82859	-609.68286	1426.06787	217.78645	-424.22794	1230.71619	-88.95670	-735.65137	1239.36182	200.46495	-501.17038	1167.55115	143.85909	-654.76617	1298.38013	-24.77459	-450.31491	955.14520	-191.64365	-829.72266	999.62195	253.36447	-350.12222	737.40271	-185.86386	-794.49463	769.83112	402.53180	-426.29373	856.03601	51.47270	-647.69147	848.56659	216.80783	-686.02039	900.48169	-93.17077	-337.22156	519.46515	168.95325	-710.19476	417.22571	180.40318	-347.03677	145.63242	144.29289	-792.89392	89.21227	100.17242	
